ply
format ascii 1.0
element vertex 42
property float x
property float y
property float z
end_header
-0.118693 0.0851834 23.3698 
-1.24856 -0.0792348 11.786 
-1.24856 -0.0792348 11.786 
-2.5097 1.64239 15.2287 
-2.5097 1.64239 15.2287 
-91202.6 -9213.36 3.89672e+006 
0.820188 0.00191566 5.46474 
0.820188 0.00191566 5.46474 
0.820188 0.00191566 5.46474 
0.820188 0.00191566 5.46474 
0.820188 0.00191566 5.46474 
0.820188 0.00191566 5.46474 
0.820188 0.00191566 5.46474 
0.820188 0.00191566 5.46474 
0.820188 0.00191566 5.46474 
0.820188 0.00191566 5.46474 
0.820188 0.00191566 5.46474 
0.446092 -0.876472 5.04722 
0.446092 -0.876472 5.04722 
0.446092 -0.876472 5.04722 
0.446092 -0.876472 5.04722 
0.446092 -0.876472 5.04722 
0.446092 -0.876472 5.04722 
16961.8 -4671.24 -4.66427e+006 
16961.8 -4671.24 -4.66427e+006 
16961.8 -4671.24 -4.66427e+006 
16961.8 -4671.24 -4.66427e+006 
0.00564513 -1.27863 6.81512 
0.00564513 -1.27863 6.81512 
0.00564513 -1.27863 6.81512 
0.00564513 -1.27863 6.81512 
0.00564513 -1.27863 6.81512 
0.00564513 -1.27863 6.81512 
0.00564513 -1.27863 6.81512 
0.00564513 -1.27863 6.81512 
0.00564513 -1.27863 6.81512 
0.00564513 -1.27863 6.81512 
0.00564513 -1.27863 6.81512 
0.00564513 -1.27863 6.81512 
0.00564513 -1.27863 6.81512 
0.00564513 -1.27863 6.81512 
0.00564513 -1.27863 6.81512 
