ply
format ascii 1.0
element vertex 508
property float x
property float y
property float z
end_header
1.42093 -2.6818 12.8098 
1.42093 -2.6818 12.8098 
-0.330877 -2.02494 10.0151 
0.0547747 -2.01538 10.6078 
-1.00957 -1.3662 7.60668 
-1.00957 -1.3662 7.60668 
1.63239 -1.79345 12.4005 
2.25385 -1.8955 13.3964 
-0.762677 -1.0728 7.77912 
-1.03719 -0.8336 6.25518 
0.56958 -1.4286 11.141 
-0.374465 -1.07384 8.79705 
-0.368971 -1.0386 8.74764 
0.784694 -1.30432 11.5056 
-0.37364 -0.972788 8.66935 
1.51228 -1.40231 12.5177 
1.7283 -1.34833 12.743 
2.12156 -1.37572 13.0958 
0.60871 -1.14006 11.7249 
-0.75277 -0.630155 6.4952 
-0.111851 -0.894122 9.15474 
-0.294589 -0.856065 8.98572 
0.0417207 -0.892344 9.52573 
0.936805 -1.08018 11.6222 
0.173374 -0.965384 10.3986 
0.852799 -0.836046 11.4927 
-0.289768 -0.610588 8.97752 
0.491694 -0.628382 10.6341 
-0.813548 -0.22637 4.45125 
-0.835627 -0.198079 4.19802 
-0.72602 -0.279429 6.38264 
1.13014 -0.494153 11.6298 
-0.647614 -0.322246 7.69831 
1.92272 -0.168447 13.0645 
0.663064 -0.0702424 10.4733 
3.02352 0.0632005 14.0486 
3.02352 0.0632005 14.0486 
-0.671914 0.0443869 6.06412 
0.823125 0.0784476 11.0995 
1.09187 0.360198 11.7897 
-0.0256591 0.333277 9.63264 
2.08806 0.450135 13.146 
2.31335 0.474283 13.3651 
2.36816 0.494419 13.3964 
2.39702 0.552656 13.5407 
2.60052 0.55077 13.5849 
-0.774315 0.173797 4.04075 
1.51173 0.64421 12.4496 
1.51173 0.64421 12.4496 
1.51173 0.64421 12.4496 
1.71468 0.648196 12.7228 
4.0786 0.690743 14.173 
-0.302436 0.0657778 1.10523 
-0.32735 0.0804193 1.21069 
-0.761053 0.264042 3.57108 
2.72165 1.03885 13.739 
-0.596841 0.549197 6.98574 
-0.721749 0.680299 8.88613 
-0.0104585 0.0020023 0.0271607 
1.42586 1.05548 12.371 
1.42586 1.05548 12.371 
2.2212 1.1449 13.3383 
-0.715138 0.540866 6.01063 
-0.759521 0.378848 3.96885 
-0.714208 0.330616 3.12996 
-0.624054 0.854568 7.38345 
2.38929 1.59258 13.4774 
-0.290964 1.11298 8.87875 
-0.709347 0.883459 6.66473 
-0.365572 1.11261 8.33583 
1.05901 1.62678 11.9186 
1.11913 1.84017 12.0722 
-0.616254 1.30834 8.38566 
-0.616254 1.30834 8.38566 
1.64498 2.08277 12.8517 
1.05089 2.19993 12.0544 
-0.51731 1.66279 8.6701 
0.248387 2.76873 10.9162 
0.0382319 -2.05914 10.664 
-0.738379 -1.58827 8.58519 
2.14051 -2.29509 13.2327 
1.23969 -1.7579 11.9853 
2.02533 -1.62792 13.1015 
-0.259439 -1.1122 9.46174 
-0.96128 -0.743495 6.3015 
0.588061 -1.2988 11.1911 
-0.352551 -1.01579 8.8253 
1.87041 -1.45479 12.7876 
-0.41235 -0.933664 8.54984 
2.24916 -1.43774 13.2946 
-0.316358 -0.948797 8.86019 
-0.977504 -0.597989 5.64782 
2.66719 -1.45377 13.7787 
-0.306537 -0.895131 9.01741 
1.23406 -1.1838 12.0308 
-0.92921 -0.56931 6.22518 
2.49242 -1.2277 13.8967 
-0.736838 -0.558465 6.45209 
-0.911913 -0.456913 5.52171 
1.76569 -1.00034 12.6611 
1.76501 -0.943459 12.7447 
1.2553 -0.828889 12.1408 
-0.0388806 -0.540498 8.49681 
1.45074 -0.645701 12.2758 
1.89844 -0.635646 12.8108 
-0.0558143 -0.448392 9.71286 
2.82536 -0.607022 13.9442 
0.101553 -0.274213 8.34083 
0.0426497 -0.189761 6.68768 
0.0833128 -0.206154 7.33469 
2.0069 -0.204387 13.0843 
0.395019 -0.0299775 10.8479 
0.395019 -0.0299775 10.8479 
2.60642 0.0557243 13.8889 
-0.0114666 0.00289176 0.391286 
1.87521 0.307175 12.7947 
0.0239054 0.305202 10.0595 
-0.779061 0.164559 4.67831 
-0.747712 0.178636 4.09264 
-0.971257 0.223799 5.49595 
-0.747712 0.178636 4.09264 
0.716319 0.561628 10.6835 
-0.268608 0.0514904 0.969762 
0.659414 0.590337 10.6544 
-0.0591534 0.496821 8.86213 
0.715972 0.677789 11.1202 
-0.499825 0.483967 5.74087 
-0.0103795 0.00213138 0.0268035 
-0.0103795 0.00213138 0.0268035 
-0.0101763 0.00221249 0.0261272 
-0.678071 0.284932 2.95077 
-0.678071 0.284932 2.95077 
-0.37116 0.89382 8.27929 
0.505148 1.54088 11.0123 
-0.329784 -1.79575 9.82185 
1.41128 -2.27514 12.6508 
0.598338 -1.95148 11.4588 
0.598338 -1.95148 11.4588 
1.71075 -2.21335 13.0465 
-0.0451717 -1.69457 10.8899 
-0.807742 -1.03137 7.39095 
-0.746695 -1.11476 8.03194 
0.418261 -1.53086 11.0068 
0.86499 -1.65504 12.0182 
0.540057 -1.47231 11.315 
0.540057 -1.47231 11.315 
-0.51088 -1.05052 8.23997 
-0.876663 -0.802582 6.65274 
-0.920016 -0.765826 6.43123 
-0.0556993 -1.0253 9.57534 
2.1327 -1.33221 13.1343 
-0.891456 -0.59218 5.95855 
-0.290854 -0.815127 8.92557 
1.05408 -1.08326 11.8213 
0.890191 -1.00861 11.4366 
0.754431 -0.824971 11.1827 
0.908131 -0.817719 11.4228 
1.52204 -0.868869 12.4148 
-0.786486 -0.440817 6.92526 
1.11232 -0.685598 11.873 
1.83545 -0.715811 12.779 
2.05628 -0.572631 13.0841 
1.80615 -0.553288 12.7246 
-0.503679 -0.267362 7.91495 
2.17453 -0.393352 13.1504 
-0.775901 -0.176097 6.23936 
-0.703562 -0.0213079 5.54219 
-0.714424 0.172148 6.3136 
0.968322 0.316929 11.7683 
0.968322 0.316929 11.7683 
0.729682 0.314786 11.2577 
-0.772869 0.163417 4.64716 
0.0418676 0.352707 9.90787 
-0.624648 0.243933 6.39351 
-0.624648 0.243933 6.39351 
1.82228 0.503678 12.7153 
1.28947 0.732825 12.2291 
0.598008 0.68329 10.9856 
-0.283213 0.597874 8.54237 
-0.273559 0.990151 8.87072 
1.35766 -2.68433 12.7631 
1.35766 -2.68433 12.7631 
1.74735 -2.56026 13.0801 
1.10542 -2.16718 12.3108 
0.367396 -1.89035 11.1044 
1.33344 -2.1185 12.6095 
0.97109 -1.99103 11.993 
0.97109 -1.99103 11.993 
1.15543 -1.96534 12.2201 
-0.648102 -1.24195 8.35862 
-0.295185 -1.3625 9.46197 
0.939277 -1.72013 11.8815 
0.939277 -1.72013 11.8815 
0.830178 -1.68899 11.6727 
-0.798418 -1.03709 7.64911 
0.519234 -1.50533 11.0889 
-0.376217 -0.922084 8.73998 
-0.376217 -0.922084 8.73998 
1.74441 -1.31548 12.7424 
1.74441 -1.31548 12.7424 
1.74441 -1.31548 12.7424 
-0.98145 -0.571351 5.64238 
-0.899797 -0.59592 6.00508 
-1.01294 -0.525787 5.36685 
0.0779685 -0.916509 10.3182 
0.388527 -0.920629 10.5241 
0.272934 -0.9134 10.5095 
2.84585 -1.18634 13.9616 
-0.855857 -0.493492 5.98099 
0.587856 -0.903813 11.095 
0.587856 -0.903813 11.095 
-0.31453 -0.68212 8.90613 
-0.2752 -0.638508 8.98293 
-0.2752 -0.638508 8.98293 
0.279422 -0.725347 10.4067 
-0.782987 -0.447995 6.67479 
-0.782987 -0.447995 6.67479 
0.438976 -0.722896 10.7975 
-0.318716 -0.582139 8.8395 
0.091952 -0.62673 10.1242 
0.091952 -0.62673 10.1242 
0.091952 -0.62673 10.1242 
-0.279498 -0.551507 9.03965 
-0.279498 -0.551507 9.03965 
0.339561 -0.571633 10.6603 
1.9204 -0.567872 12.7559 
1.9204 -0.567872 12.7559 
-0.0490566 -0.342703 8.29352 
-0.0424662 -0.410962 10.0121 
1.49974 -0.498378 12.4237 
1.49974 -0.498378 12.4237 
2.82038 -0.524675 13.7981 
-0.799828 -0.197296 5.80428 
1.675 -0.419311 12.701 
1.675 -0.419311 12.701 
1.675 -0.419311 12.701 
1.30719 -0.37372 12.0228 
0.370379 -0.0818328 11.3259 
2.21671 -0.0747486 13.1323 
0.369566 -0.00607802 10.621 
0.449367 0.0615299 10.8528 
0.894114 0.088373 11.253 
0.894114 0.088373 11.253 
0.333857 0.245346 11.004 
0.640808 0.267533 11.295 
0.640808 0.267533 11.295 
-0.818607 0.125335 4.42595 
1.17342 0.323099 11.9986 
1.91541 0.366122 12.7666 
2.67627 0.390196 13.5515 
2.67627 0.390196 13.5515 
2.67627 0.390196 13.5515 
2.67627 0.390196 13.5515 
2.67627 0.390196 13.5515 
0.912123 0.399111 11.5962 
1.75771 0.446798 12.737 
1.75771 0.446798 12.737 
1.26031 0.430144 12.0414 
-0.761472 0.185013 4.52083 
1.96884 0.517251 12.9334 
-0.764296 0.204679 4.15158 
-0.716276 0.187818 3.85815 
0.340077 0.520503 10.4782 
0.341712 0.521995 10.5155 
0.341712 0.521995 10.5155 
0.340077 0.520503 10.4782 
1.73864 0.656864 12.7516 
1.43427 0.657809 12.3954 
1.43427 0.657809 12.3954 
1.43427 0.657809 12.3954 
-0.792009 0.30593 5.523 
2.10258 0.761635 13.164 
-0.646578 0.421481 6.8295 
-0.376496 0.0929013 1.41025 
-0.581031 0.467353 6.65791 
1.26269 0.892158 12.1409 
0.667669 0.896369 11.1238 
-0.815729 0.4704 4.77633 
-0.815729 0.4704 4.77633 
-0.815729 0.4704 4.77633 
-0.815729 0.4704 4.77633 
-0.815729 0.4704 4.77633 
-0.815729 0.4704 4.77633 
0.857158 1.23368 11.6335 
-0.787264 0.571238 5.27605 
-0.279761 1.04264 8.87658 
0.91408 1.40617 11.737 
-0.630806 0.879137 7.2271 
0.712415 1.40002 11.3472 
1.07479 1.60469 11.973 
1.07479 1.60469 11.973 
1.07479 1.60469 11.973 
-0.45864 1.18853 8.31031 
-0.446979 1.29473 8.39684 
-0.446979 1.29473 8.39684 
0.479188 1.69857 10.8847 
-0.264406 1.7723 9.33431 
-0.38844 2.08441 9.24338 
0.323236 -2.30014 11.3406 
-0.340828 -1.99371 9.95961 
-0.340828 -1.99371 9.95961 
0.489989 -2.26429 11.5195 
2.0366 -2.51966 13.3977 
-0.389829 -1.78539 9.64554 
1.5076 -2.34459 12.7916 
1.5076 -2.34459 12.7916 
1.5076 -2.34459 12.7916 
-0.320822 -1.6821 9.55375 
0.499827 -2.00928 11.3735 
0.499827 -2.00928 11.3735 
1.35536 -2.21672 12.6549 
1.35536 -2.21672 12.6549 
0.633008 -1.90747 11.6652 
0.854652 -1.82616 11.715 
0.854652 -1.82616 11.715 
1.13204 -1.80529 12.1365 
0.826066 -1.45077 11.4124 
-0.326781 -1.08258 9.34678 
1.15969 -1.33777 12.0477 
2.34139 -1.47959 13.57 
0.607139 -0.992561 10.9809 
0.607139 -0.992561 10.9809 
0.607139 -0.992561 10.9809 
-0.359701 -0.616733 8.61458 
-0.359701 -0.616733 8.61458 
2.74029 -0.907567 13.7182 
2.74029 -0.907567 13.7182 
2.74029 -0.907567 13.7182 
0.530478 -0.688431 10.7736 
0.344397 -0.661885 10.6378 
1.19904 -0.738711 11.9939 
0.429654 -0.606733 10.7161 
1.72145 -0.691596 12.5931 
0.0627277 -0.498573 9.32284 
-0.730843 -0.281164 6.28376 
0.0772919 -0.337569 8.33265 
0.102177 -0.387652 9.64466 
1.36882 -0.46624 12.164 
0.309122 -0.326948 10.8947 
0.949187 -0.07861 11.615 
1.02658 -0.0755707 12.381 
0.210796 0.120171 8.7369 
0.599923 0.172938 11.0051 
2.23744 0.33401 13.198 
-0.797215 0.132371 4.76161 
-0.797215 0.132371 4.76161 
-0.797215 0.132371 4.76161 
0.850339 0.334619 11.5803 
-0.738783 0.109137 3.2669 
2.29398 0.429524 13.2998 
-0.785865 0.152422 4.10386 
-0.0358985 0.381155 9.06215 
-0.284135 0.0411201 1.00646 
1.22531 0.70641 12.0785 
1.6653 0.740009 12.6528 
0.317165 0.643951 10.4914 
1.81467 0.798669 12.9977 
2.22633 0.824217 13.3457 
-0.269227 0.545875 8.64323 
1.30972 0.812489 12.1473 
2.41846 0.899617 13.271 
-0.74239 0.237811 3.38776 
-0.551446 0.522494 7.10197 
-0.275625 0.652765 8.52939 
-0.275625 0.652765 8.52939 
1.84816 1.01922 12.7156 
1.67748 1.07145 12.6256 
0.731976 0.986905 11.249 
1.61404 1.13979 12.1797 
0.875064 1.11661 11.5728 
1.79513 1.40542 12.8727 
0.854077 1.32338 11.6314 
0.368007 1.24221 10.6428 
-0.649878 0.808655 6.866 
1.13417 1.42854 12.0739 
2.38217 1.6587 13.5409 
-0.69291 0.91108 6.8993 
2.42757 1.80107 13.6738 
1.08411 1.71467 11.9711 
-0.841108 0.865273 5.73098 
1.08768 1.86868 12.3309 
-0.571807 1.22308 7.72185 
-0.571807 1.22308 7.72185 
-0.571807 1.22308 7.72185 
1.01401 1.90987 12.0451 
-0.36315 1.60236 8.78161 
0.545306 -2.17049 11.6098 
-0.668541 -1.51579 8.50023 
-0.297013 -1.53366 9.20243 
0.831325 -1.96486 11.9079 
-0.424701 -1.40583 8.91485 
-0.704762 -1.16413 8.21139 
3.49025 -1.92609 14.0176 
-0.47533 -1.08099 8.86979 
-0.435369 -0.880671 8.24458 
-0.0479181 -0.928245 9.29719 
1.41706 -1.23034 12.3896 
-0.724457 -0.613721 6.56089 
-0.33021 -0.719749 8.43098 
1.66277 -1.00512 12.6093 
1.66277 -1.00512 12.6093 
1.66277 -1.00512 12.6093 
0.365899 -0.790117 10.4842 
2.69464 -1.02565 13.6964 
1.043 -0.8432 11.6831 
0.00608288 -0.706123 9.97768 
2.17654 -0.947503 13.1808 
1.46671 -0.856539 12.3171 
1.46671 -0.856539 12.3171 
1.30832 -0.678073 12.1719 
1.26054 -0.657978 11.7995 
0.424594 -0.502341 10.6598 
0.424594 -0.502341 10.6598 
2.0908 -0.621629 13.0873 
2.0908 -0.621629 13.0873 
-0.641923 -0.288098 6.64775 
0.713795 -0.332724 11.1543 
0.749297 -0.352179 11.6168 
2.17449 -0.187479 12.8007 
2.38668 -0.00218972 13.4457 
0.535538 0.071886 10.5953 
0.366922 0.344744 10.7896 
-0.798358 0.152685 4.51157 
-0.191794 0.0228863 0.661943 
-0.191794 0.0228863 0.661943 
1.79555 0.559327 12.6798 
-0.572746 0.472812 7.54387 
2.744 0.972587 13.2133 
2.90714 1.08865 13.8944 
-0.744921 0.284511 3.51804 
-0.733534 0.441972 5.15891 
1.91991 1.17254 13.0893 
-0.759628 0.372671 4.03332 
0.564369 1.50093 10.9524 
0.564369 1.50093 10.9524 
-0.849074 0.820653 5.4374 
1.79691 -2.68353 13.0019 
1.00517 -1.85451 11.9546 
-0.506628 -1.31999 8.78328 
1.00306 -1.43978 11.9983 
-0.485231 -0.753315 7.77278 
-0.485231 -0.753315 7.77278 
-0.911981 -0.504364 5.82905 
0.587965 -0.768952 11.0085 
2.34227 -0.93713 13.416 
1.29866 -0.687222 12.2923 
1.34767 -0.70804 12.6768 
1.97968 -0.719083 12.9759 
-0.611509 -0.237138 7.22115 
1.47237 -0.362416 12.3716 
0.51407 -0.221919 12.7883 
0.820909 -0.156263 10.8799 
-0.749643 0.0283773 4.39681 
2.25993 0.121711 13.4446 
-0.718804 0.182514 5.18149 
1.10133 0.424436 11.659 
1.28642 0.512479 12.2612 
1.28642 0.512479 12.2612 
1.28642 0.512479 12.2612 
1.41207 0.524831 12.1327 
1.62858 0.569213 12.6177 
-0.65861 0.164739 2.87372 
-0.761498 0.358459 5.30301 
1.88014 0.882693 13.1582 
0.357212 0.777012 10.6853 
0.402516 1.02346 10.6142 
0.586675 1.12495 10.6674 
0.556516 1.64425 11.1492 
-0.772654 0.953299 6.3198 
0.659219 -2.16093 11.6772 
-0.152211 -0.979289 9.23987 
0.714902 -0.990669 11.3279 
1.67056 -0.827309 12.6646 
1.67056 -0.827309 12.6646 
1.67056 -0.827309 12.6646 
-0.792344 -0.365947 6.38757 
1.90008 -0.376223 12.8909 
1.90008 -0.376223 12.8909 
0.480709 -0.201131 11.346 
0.923244 0.010531 11.2616 
0.923244 0.010531 11.2616 
2.71488 0.19566 13.5495 
1.03328 0.196129 11.1779 
1.03328 0.196129 11.1779 
0.478205 0.231051 10.9222 
0.538973 0.49303 10.2314 
-0.336659 0.0641199 1.22858 
1.19489 0.805077 11.9044 
-0.41459 1.03769 7.95713 
-0.306631 1.20406 8.741 
0.738936 1.62413 11.1874 
2.4495 2.06968 13.8614 
-0.633317 1.19938 7.27968 
2.45821 -2.12856 13.696 
0.86225 -1.15891 11.5472 
1.23778 -0.968017 11.9891 
-0.743367 -0.572034 7.38218 
-0.125505 -0.73557 10.1067 
0.739271 -0.195213 10.9819 
1.99358 0.179945 13.2573 
-0.766205 0.0725299 4.9398 
-0.765176 0.108559 5.69748 
-0.765176 0.108559 5.69748 
0.196972 0.452244 9.8435 
0.961699 0.594795 11.4401 
2.7382 0.849308 14.0089 
1.56312 0.874771 12.5194 
2.56547 0.26661 13.7387 
